<svg version="1.1" id="Layer_1" xmlns="http://www.w3.org/2000/svg" xmlns:xlink="http://www.w3.org/1999/xlink" x="0px" y="0px"
	 width="200" height="100"  viewBox="0 0 201 252" enable-background="new 0 0 201 252" xml:space="preserve">
<path fill="#FFFFFF" opacity="1.000000" stroke="none" 
	d="
M171.000000,253.000000 
	C161.979111,253.000000 152.958206,253.000000 143.469818,252.607056 
	C139.534927,242.438965 136.067535,232.663834 132.707336,223.190918 
	C128.781830,223.190918 125.492714,223.190918 122.326233,223.190918 
	C118.835594,233.267456 115.417793,243.133728 112.000000,253.000000 
	C99.979103,253.000000 87.958214,253.000000 75.468658,252.531387 
	C75.000000,245.146851 75.000000,238.230927 75.000000,230.883087 
	C78.257759,230.883087 80.989471,230.883087 83.700485,230.883087 
	C83.700485,228.044846 83.700485,225.655807 83.700485,223.284973 
	C74.686470,223.284973 65.974464,223.284973 57.304226,223.284973 
	C57.304226,225.972351 57.304226,228.366852 57.304226,231.198120 
	C60.331432,231.198120 63.056107,231.198120 66.000000,231.198120 
	C66.000000,238.764755 66.000000,245.882370 66.000000,253.000000 
	C53.979103,253.000000 41.958210,253.000000 29.604195,252.611328 
	C29.565361,250.248398 29.859650,248.274170 30.226906,245.810425 
	C24.655909,245.810425 19.897284,245.810425 14.885500,245.810425 
	C15.063763,243.957642 15.198284,242.559494 15.373733,240.735962 
	C19.776237,240.735962 23.844091,240.735962 27.792866,240.735962 
	C27.792866,238.317932 27.792866,236.371613 27.792866,233.987091 
	C23.513615,233.987091 19.423044,233.987091 15.131334,233.987091 
	C15.131334,232.587128 15.041955,230.800598 15.144188,230.789581 
	C19.662361,230.301987 24.197430,229.970963 28.703239,229.623291 
	C28.703239,227.390854 28.703239,225.330948 28.703239,223.346558 
	C21.000046,223.346558 13.601768,223.346558 5.000000,223.346558 
	C5.000000,233.470261 5.000000,243.235123 5.000000,253.000000 
	C3.667465,253.000000 2.334931,253.000000 1.001797,253.000000 
	C1.001198,169.051117 1.001198,85.102242 1.001198,1.076683 
	C67.908661,1.076683 134.817429,1.076683 201.863098,1.076683 
	C201.863098,84.999840 201.863098,168.999893 201.863098,253.000000 
	C194.929214,253.000000 187.933395,253.000000 180.470398,252.537231 
	C180.003250,248.803360 180.003250,245.532227 180.003250,242.001083 
	C183.034882,242.001083 185.527817,242.220108 187.967148,241.951767 
	C192.023666,241.505508 194.679779,239.065994 194.911819,235.005280 
	C195.156616,230.721375 196.146637,225.249847 190.174973,224.135101 
	C183.997345,222.981918 177.587280,223.073853 171.000000,222.601135 
	C171.000000,233.417587 171.000000,243.208786 171.000000,253.000000 
M79.000000,111.500000 
	C79.000000,140.587875 79.000000,169.675735 79.000000,198.652069 
	C85.705612,198.652069 91.771141,198.652069 98.000000,198.652069 
	C98.000000,196.483505 98.000000,194.662155 98.000000,192.840805 
	C98.000000,149.849167 97.979897,106.857498 98.042244,63.865955 
	C98.046715,60.781307 98.625328,57.694187 98.985611,54.613907 
	C101.069916,36.793816 122.462486,17.869389 143.873703,20.746313 
	C167.300140,23.894012 184.446442,47.246216 179.085083,70.218468 
	C175.221207,86.774277 160.679794,100.590324 143.910873,101.983009 
	C139.682098,102.334221 135.429932,102.403374 131.381195,102.593117 
	C131.381195,108.777878 131.381195,114.842850 131.381195,121.000000 
	C135.258667,121.000000 138.756165,120.959625 142.252487,121.007034 
	C156.935654,121.206085 169.362381,115.280876 179.698898,105.588120 
	C195.118607,91.128738 201.293457,73.146194 198.096420,51.931923 
	C196.285690,39.916451 191.482574,29.513540 183.231384,20.823160 
	C170.907578,7.843358 155.892303,1.469004 137.667908,1.851703 
	C120.269638,2.217054 106.365189,8.726699 94.801720,21.558290 
	C83.703102,33.874043 79.179161,48.359402 79.030380,64.509224 
	C78.889160,79.838272 79.000000,95.169647 79.000000,111.500000 
M154.995361,65.302086 
	C151.398972,77.732155 141.435593,77.906639 131.345306,76.950905 
	C131.345306,84.049438 131.345306,90.451942 131.345306,97.433266 
	C135.805328,96.927452 139.859268,96.397919 143.927200,96.018005 
	C165.253433,94.026337 178.884140,73.442139 173.674988,52.816341 
	C168.673187,33.011520 149.227524,22.111433 129.683762,27.841518 
	C112.594025,32.852100 104.259453,46.237171 104.121178,63.126804 
	C103.761055,107.109772 103.997322,151.097641 104.013969,195.083557 
	C104.014442,196.343842 104.220726,197.604065 104.309471,198.617798 
	C111.109238,198.617798 117.508980,198.617798 124.000000,198.617798 
	C124.000000,152.585999 123.989929,106.936302 124.035202,61.286659 
	C124.037102,59.373451 124.185692,57.309841 124.895607,55.573784 
	C128.070618,47.809456 136.451981,43.840557 144.343826,46.137047 
	C151.723495,48.284504 156.308105,56.185036 154.995361,65.302086 
M48.568470,79.989128 
	C34.811218,83.279175 23.366013,90.148651 14.853577,101.631752 
	C2.735031,117.979431 -0.916253,135.951355 4.939224,155.506439 
	C13.623663,184.509186 39.958050,200.738358 69.968346,197.896378 
	C71.376648,197.763016 73.732254,196.263062 73.802849,195.268661 
	C74.184174,189.896851 73.983498,184.483719 73.983498,178.967194 
	C46.860928,184.448090 24.201546,169.796127 20.234278,141.534592 
	C18.724051,130.776199 22.414284,120.414192 29.586313,112.057182 
	C40.869862,98.909325 55.253681,93.510818 72.769608,97.295296 
	C72.769608,90.899078 72.769608,85.149933 72.769608,79.164665 
	C68.721352,78.765945 64.822861,77.985603 60.954151,78.112595 
	C57.097927,78.239174 53.271576,79.275665 48.568470,79.989128 
M57.592247,2.000000 
	C24.200274,2.295631 -2.807590,36.604630 2.673706,64.621758 
	C8.784918,64.621758 14.848969,64.621758 20.991285,64.621758 
	C19.961102,47.447906 27.080894,34.904079 41.258034,26.279097 
	C55.454365,17.642437 69.715950,19.253847 83.348740,26.594374 
	C86.494064,22.937216 89.251396,19.497791 92.258713,16.292946 
	C96.109924,12.188781 96.174538,11.850145 91.084465,9.027837 
	C80.963387,3.415970 70.107651,1.092706 57.592247,2.000000 
M60.996597,121.508041 
	C64.987404,122.333153 68.978210,123.158264 72.999786,123.989738 
	C72.999786,119.091972 72.878571,113.765793 73.046204,108.448723 
	C73.143524,105.361755 72.311043,103.776382 68.880562,103.945145 
	C64.725174,104.149559 60.497311,103.553886 56.395866,104.065895 
	C37.862366,106.379555 27.431320,121.565926 27.146616,138.595169 
	C26.959837,149.767151 31.911394,159.235840 40.768227,166.148544 
	C50.430832,173.690140 61.379311,174.653000 72.985435,171.666855 
	C72.985435,165.320709 72.991890,159.501251 72.973198,153.681854 
	C72.971703,153.215576 72.796814,152.749863 72.701141,152.277191 
	C58.560631,156.498611 48.275494,152.832932 46.027756,142.817291 
	C43.783737,132.818207 50.301846,123.283401 60.996597,121.508041 
M178.481796,186.013580 
	C193.301880,173.933044 201.215530,158.627899 201.030930,139.000000 
	C198.851440,139.000000 197.369354,138.973328 195.888550,139.005203 
	C192.077927,139.087189 187.728180,138.130722 184.657730,139.687500 
	C182.782669,140.638168 182.867172,145.467606 182.085495,148.558456 
	C179.147354,160.176117 172.664749,169.246765 162.231110,175.168610 
	C155.061981,179.237595 147.187164,181.203903 138.894882,180.944366 
	C136.400604,180.866287 133.924820,180.197968 131.269012,179.772568 
	C131.269012,186.269058 131.269012,192.014542 131.269012,197.797119 
	C148.571960,200.451660 164.037476,196.656616 178.481796,186.013580 
M29.747696,64.989265 
	C35.400425,64.989265 41.053154,64.989265 46.956879,64.989265 
	C45.951996,57.930618 47.798367,52.062599 53.583767,48.221375 
	C60.804184,43.427364 67.927383,44.159912 74.102585,50.141399 
	C76.266327,43.606300 78.287735,37.501080 80.392891,31.142902 
	C67.552528,24.146347 54.534626,24.434013 42.010620,33.039886 
	C31.936550,39.962280 25.396969,53.545109 29.747696,64.989265 
M134.901489,172.994980 
	C141.387589,172.332001 148.069244,172.436401 154.318481,170.843933 
	C166.759888,167.673523 178.313202,150.714279 175.505905,139.201508 
	C170.448914,139.201508 165.341675,139.201508 160.295135,139.201508 
	C158.791473,145.393265 156.362503,150.698746 150.701569,154.100204 
	C144.198196,158.007843 137.805038,157.260727 131.001007,153.651718 
	C131.001007,159.279297 130.799576,164.272980 131.137299,169.229935 
	C131.225891,170.530212 132.986496,171.716583 134.901489,172.994980 
z"/>
<path fill="#0255A6" opacity="1.000000" stroke="none" 
	d="
M5.468636,253.000000 
	C5.000000,243.235123 5.000000,233.470261 5.000000,223.346558 
	C13.601768,223.346558 21.000046,223.346558 28.703239,223.346558 
	C28.703239,225.330948 28.703239,227.390854 28.703239,229.623291 
	C24.197430,229.970963 19.662361,230.301987 15.144188,230.789581 
	C15.041955,230.800598 15.131334,232.587128 15.131334,233.987091 
	C19.423044,233.987091 23.513615,233.987091 27.792866,233.987091 
	C27.792866,236.371613 27.792866,238.317932 27.792866,240.735962 
	C23.844091,240.735962 19.776237,240.735962 15.373733,240.735962 
	C15.198284,242.559494 15.063763,243.957642 14.885500,245.810425 
	C19.897284,245.810425 24.655909,245.810425 30.226906,245.810425 
	C29.859650,248.274170 29.565361,250.248398 29.135536,252.611328 
	C21.312424,253.000000 13.624847,253.000000 5.468636,253.000000 
z"/>
<path fill="#0255A6" opacity="1.000000" stroke="none" 
	d="
M112.454102,253.000000 
	C115.417793,243.133728 118.835594,233.267456 122.326233,223.190918 
	C125.492714,223.190918 128.781830,223.190918 132.707336,223.190918 
	C136.067535,232.663834 139.534927,242.438965 143.001160,252.607056 
	C139.969406,253.000000 136.938812,253.000000 133.443558,252.593201 
	C132.438553,250.766571 131.898224,249.346741 131.420944,248.092651 
	C128.575165,248.092651 126.122765,248.092651 123.401192,248.092651 
	C122.936745,249.719269 122.468369,251.359634 122.000000,253.000000 
	C118.969406,253.000000 115.938812,253.000000 112.454102,253.000000 
M125.483482,237.812988 
	C125.239395,239.057388 124.995308,240.301788 124.731125,241.648636 
	C126.785454,241.648636 128.488480,241.648636 130.576508,241.648636 
	C129.562408,238.110077 128.670410,234.997620 127.516724,230.972000 
	C126.746269,233.656204 126.247543,235.393723 125.483482,237.812988 
z"/>
<path fill="#0255A6" opacity="1.000000" stroke="none" 
	d="
M171.449982,253.000000 
	C171.000000,243.208786 171.000000,233.417587 171.000000,222.601135 
	C177.587280,223.073853 183.997345,222.981918 190.174973,224.135101 
	C196.146637,225.249847 195.156616,230.721375 194.911819,235.005280 
	C194.679779,239.065994 192.023666,241.505508 187.967148,241.951767 
	C185.527817,242.220108 183.034882,242.001083 180.003250,242.001083 
	C180.003250,245.532227 180.003250,248.803360 180.001617,252.537231 
	C177.299988,253.000000 174.599976,253.000000 171.449982,253.000000 
M179.836380,232.776901 
	C180.561722,233.891937 181.287079,235.006973 182.012421,236.122009 
	C183.447479,235.100952 185.016388,234.203094 186.183304,232.935257 
	C186.373489,232.728622 184.994537,230.294403 183.974060,229.936935 
	C182.367371,229.374130 179.778961,228.391083 179.836380,232.776901 
z"/>
<path fill="#0054A6" opacity="1.000000" stroke="none" 
	d="
M66.449982,253.000000 
	C66.000000,245.882370 66.000000,238.764755 66.000000,231.198120 
	C63.056107,231.198120 60.331432,231.198120 57.304226,231.198120 
	C57.304226,228.366852 57.304226,225.972351 57.304226,223.284973 
	C65.974464,223.284973 74.686470,223.284973 83.700485,223.284973 
	C83.700485,225.655807 83.700485,228.044846 83.700485,230.883087 
	C80.989471,230.883087 78.257759,230.883087 75.000000,230.883087 
	C75.000000,238.230927 75.000000,245.146851 75.000000,252.531387 
	C72.299988,253.000000 69.599968,253.000000 66.449982,253.000000 
z"/>
<path fill="#FFFFFF" opacity="1.000000" stroke="none" 
	d="
M122.458069,253.000000 
	C122.468369,251.359634 122.936745,249.719269 123.401192,248.092651 
	C126.122765,248.092651 128.575165,248.092651 131.420944,248.092651 
	C131.898224,249.346741 132.438553,250.766571 132.989441,252.593201 
	C129.638718,253.000000 126.277428,253.000000 122.458069,253.000000 
z"/>
<path fill="#0054A6" opacity="1.000000" stroke="none" 
	d="
M79.000000,111.000000 
	C79.000000,95.169647 78.889160,79.838272 79.030380,64.509224 
	C79.179161,48.359402 83.703102,33.874043 94.801720,21.558290 
	C106.365189,8.726699 120.269638,2.217054 137.667908,1.851703 
	C155.892303,1.469004 170.907578,7.843358 183.231384,20.823160 
	C191.482574,29.513540 196.285690,39.916451 198.096420,51.931923 
	C201.293457,73.146194 195.118607,91.128738 179.698898,105.588120 
	C169.362381,115.280876 156.935654,121.206085 142.252487,121.007034 
	C138.756165,120.959625 135.258667,121.000000 131.381195,121.000000 
	C131.381195,114.842850 131.381195,108.777878 131.381195,102.593117 
	C135.429932,102.403374 139.682098,102.334221 143.910873,101.983009 
	C160.679794,100.590324 175.221207,86.774277 179.085083,70.218468 
	C184.446442,47.246216 167.300140,23.894012 143.873703,20.746313 
	C122.462486,17.869389 101.069916,36.793816 98.985611,54.613907 
	C98.625328,57.694187 98.046715,60.781307 98.042244,63.865955 
	C97.979897,106.857498 98.000000,149.849167 98.000000,192.840805 
	C98.000000,194.662155 98.000000,196.483505 98.000000,198.652069 
	C91.771141,198.652069 85.705612,198.652069 79.000000,198.652069 
	C79.000000,169.675735 79.000000,140.587875 79.000000,111.000000 
z"/>
<path fill="#0054A6" opacity="1.000000" stroke="none" 
	d="
M154.997711,64.901352 
	C156.308105,56.185036 151.723495,48.284504 144.343826,46.137047 
	C136.451981,43.840557 128.070618,47.809456 124.895607,55.573784 
	C124.185692,57.309841 124.037102,59.373451 124.035202,61.286659 
	C123.989929,106.936302 124.000000,152.585999 124.000000,198.617798 
	C117.508980,198.617798 111.109238,198.617798 104.309471,198.617798 
	C104.220726,197.604065 104.014442,196.343842 104.013969,195.083557 
	C103.997322,151.097641 103.761055,107.109772 104.121178,63.126804 
	C104.259453,46.237171 112.594025,32.852100 129.683762,27.841518 
	C149.227524,22.111433 168.673187,33.011520 173.674988,52.816341 
	C178.884140,73.442139 165.253433,94.026337 143.927200,96.018005 
	C139.859268,96.397919 135.805328,96.927452 131.345306,97.433266 
	C131.345306,90.451942 131.345306,84.049438 131.345306,76.950905 
	C141.435593,77.906639 151.398972,77.732155 154.997711,64.901352 
z"/>
<path fill="#0054A6" opacity="1.000000" stroke="none" 
	d="
M49.000298,79.951172 
	C53.271576,79.275665 57.097927,78.239174 60.954151,78.112595 
	C64.822861,77.985603 68.721352,78.765945 72.769608,79.164665 
	C72.769608,85.149933 72.769608,90.899078 72.769608,97.295296 
	C55.253681,93.510818 40.869862,98.909325 29.586313,112.057182 
	C22.414284,120.414192 18.724051,130.776199 20.234278,141.534592 
	C24.201546,169.796127 46.860928,184.448090 73.983498,178.967194 
	C73.983498,184.483719 74.184174,189.896851 73.802849,195.268661 
	C73.732254,196.263062 71.376648,197.763016 69.968346,197.896378 
	C39.958050,200.738358 13.623663,184.509186 4.939224,155.506439 
	C-0.916253,135.951355 2.735031,117.979431 14.853577,101.631752 
	C23.366013,90.148651 34.811218,83.279175 49.000298,79.951172 
z"/>
<path fill="#0054A6" opacity="1.000000" stroke="none" 
	d="
M58.078968,2.000000 
	C70.107651,1.092706 80.963387,3.415970 91.084465,9.027837 
	C96.174538,11.850145 96.109924,12.188781 92.258713,16.292946 
	C89.251396,19.497791 86.494064,22.937216 83.348740,26.594374 
	C69.715950,19.253847 55.454365,17.642437 41.258034,26.279097 
	C27.080894,34.904079 19.961102,47.447906 20.991285,64.621758 
	C14.848969,64.621758 8.784918,64.621758 2.673706,64.621758 
	C-2.807590,36.604630 24.200274,2.295631 58.078968,2.000000 
z"/>
<path fill="#0054A6" opacity="1.000000" stroke="none" 
	d="
M60.649826,121.721588 
	C50.301846,123.283401 43.783737,132.818207 46.027756,142.817291 
	C48.275494,152.832932 58.560631,156.498611 72.701141,152.277191 
	C72.796814,152.749863 72.971703,153.215576 72.973198,153.681854 
	C72.991890,159.501251 72.985435,165.320709 72.985435,171.666855 
	C61.379311,174.653000 50.430832,173.690140 40.768227,166.148544 
	C31.911394,159.235840 26.959837,149.767151 27.146616,138.595169 
	C27.431320,121.565926 37.862366,106.379555 56.395866,104.065895 
	C60.497311,103.553886 64.725174,104.149559 68.880562,103.945145 
	C72.311043,103.776382 73.143524,105.361755 73.046204,108.448723 
	C72.878571,113.765793 72.999786,119.091972 72.999786,123.989738 
	C68.978210,123.158264 64.987404,122.333153 60.649826,121.721588 
z"/>
<path fill="#0054A6" opacity="1.000000" stroke="none" 
	d="
M178.228302,186.274811 
	C164.037476,196.656616 148.571960,200.451660 131.269012,197.797119 
	C131.269012,192.014542 131.269012,186.269058 131.269012,179.772568 
	C133.924820,180.197968 136.400604,180.866287 138.894882,180.944366 
	C147.187164,181.203903 155.061981,179.237595 162.231110,175.168610 
	C172.664749,169.246765 179.147354,160.176117 182.085495,148.558456 
	C182.867172,145.467606 182.782669,140.638168 184.657730,139.687500 
	C187.728180,138.130722 192.077927,139.087189 195.888550,139.005203 
	C197.369354,138.973328 198.851440,139.000000 201.030930,139.000000 
	C201.215530,158.627899 193.301880,173.933044 178.228302,186.274811 
z"/>
<path fill="#0054A6" opacity="1.000000" stroke="none" 
	d="
M29.272572,64.947510 
	C25.396969,53.545109 31.936550,39.962280 42.010620,33.039886 
	C54.534626,24.434013 67.552528,24.146347 80.392891,31.142902 
	C78.287735,37.501080 76.266327,43.606300 74.102585,50.141399 
	C67.927383,44.159912 60.804184,43.427364 53.583767,48.221375 
	C47.798367,52.062599 45.951996,57.930618 46.956879,64.989265 
	C41.053154,64.989265 35.400425,64.989265 29.272572,64.947510 
z"/>
<path fill="#0054A6" opacity="1.000000" stroke="none" 
	d="
M134.440369,172.975128 
	C132.986496,171.716583 131.225891,170.530212 131.137299,169.229935 
	C130.799576,164.272980 131.001007,159.279297 131.001007,153.651718 
	C137.805038,157.260727 144.198196,158.007843 150.701569,154.100204 
	C156.362503,150.698746 158.791473,145.393265 160.295135,139.201508 
	C165.341675,139.201508 170.448914,139.201508 175.505905,139.201508 
	C178.313202,150.714279 166.759888,167.673523 154.318481,170.843933 
	C148.069244,172.436401 141.387589,172.332001 134.440369,172.975128 
z"/>
<path fill="#FFFFFF" opacity="1.000000" stroke="none" 
	d="
M125.616150,237.472107 
	C126.247543,235.393723 126.746269,233.656204 127.516724,230.972000 
	C128.670410,234.997620 129.562408,238.110077 130.576508,241.648636 
	C128.488480,241.648636 126.785454,241.648636 124.731125,241.648636 
	C124.995308,240.301788 125.239395,239.057388 125.616150,237.472107 
z"/>
<path fill="#FFFFFF" opacity="1.000000" stroke="none" 
	d="
M179.837250,232.360229 
	C179.778961,228.391083 182.367371,229.374130 183.974060,229.936935 
	C184.994537,230.294403 186.373489,232.728622 186.183304,232.935257 
	C185.016388,234.203094 183.447479,235.100952 182.012421,236.122009 
	C181.287079,235.006973 180.561722,233.891937 179.837250,232.360229 
z"/>
</svg>